<?xml version="1.0" standalone="no"?>
<!DOCTYPE svg PUBLIC "-//W3C//DTD SVG 20010904//EN"
 "http://www.w3.org/TR/2001/REC-SVG-20010904/DTD/svg10.dtd">
<svg version="1.0" xmlns="http://www.w3.org/2000/svg"
 width="120.000000pt" height="71.000000pt" viewBox="0 0 120.000000 71.000000"
 preserveAspectRatio="xMidYMid meet">

<g transform="translate(0.000000,71.000000) scale(0.100000,-0.100000)"
fill="#000000" stroke="none">
<path d="M595 672 c-16 -10 -77 -43 -135 -74 -139 -73 -269 -143 -355 -190
l-70 -38 53 0 52 0 0 -181 c0 -117 3 -178 10 -174 6 4 10 77 10 186 l0 179
-25 0 c-31 0 -32 12 -2 25 12 6 130 68 261 139 232 124 241 128 265 113 15 -8
89 -49 165 -91 119 -65 141 -75 155 -63 9 7 35 30 59 50 23 20 46 37 51 37 6
0 22 -10 36 -22 l26 -23 -55 -45 c-30 -25 -55 -47 -55 -50 -1 -3 26 -20 59
-38 l60 -33 0 -184 c0 -117 4 -185 10 -185 6 0 10 69 10 188 l0 187 -32 18
c-18 10 -43 26 -56 36 l-24 17 55 45 54 45 -44 38 -43 38 -65 -57 -64 -56
-153 85 c-84 47 -160 87 -168 90 -8 4 -28 -2 -45 -12z"/>
<path d="M234 367 c-2 -7 -3 -89 -2 -182 l3 -170 420 0 420 0 3 183 2 182
-420 0 c-334 0 -422 -3 -426 -13z m829 -172 l-1 -160 -406 -3 -406 -2 0 165 0
165 407 -2 407 -3 -1 -160z"/>
<path d="M289 316 c-2 -2 -3 -59 -1 -125 l3 -121 280 0 280 0 -3 123 -3 122
-276 3 c-151 1 -277 0 -280 -2z m541 -121 l0 -105 -265 0 -265 0 0 105 0 105
265 0 265 0 0 -105z"/>
<path d="M875 291 c-7 -12 12 -24 25 -16 11 7 4 25 -10 25 -5 0 -11 -4 -15 -9z"/>
<path d="M945 291 c-7 -12 12 -24 25 -16 11 7 4 25 -10 25 -5 0 -11 -4 -15 -9z"/>
<path d="M1020 285 c0 -8 7 -15 15 -15 8 0 15 7 15 15 0 8 -7 15 -15 15 -8 0
-15 -7 -15 -15z"/>
<path d="M875 211 c-7 -12 12 -24 25 -16 11 7 4 25 -10 25 -5 0 -11 -4 -15 -9z"/>
<path d="M945 211 c-7 -12 12 -24 25 -16 11 7 4 25 -10 25 -5 0 -11 -4 -15 -9z"/>
<path d="M1017 214 c-9 -10 2 -24 19 -24 8 0 14 7 14 15 0 15 -21 21 -33 9z"/>
<path d="M912 158 c-33 -33 0 -98 49 -98 58 0 90 58 51 93 -22 20 -83 22 -100
5z m95 -26 c18 -21 -11 -52 -47 -52 -53 0 -66 51 -18 69 27 10 48 4 65 -17z"/>
</g>
</svg>
